<?xml version="1.0" encoding="UTF-8"?>
<svg id="Camada_2" data-name="Camada 2" xmlns="http://www.w3.org/2000/svg" viewBox="0 0 543.24 505.05">
  <defs>
    <style>
      .cls-1 {
        font-family: Vivaldii, Vivaldi;
        font-size: 89.99px;
      }

      .cls-1, .cls-2 {
        fill: #fff;
      }

      .cls-2 {
        stroke-width: 0px;
      }
    </style>
  </defs>
  <g id="Camada_1-2" data-name="Camada 1">
    <text class="cls-1" transform="translate(0 479.3)"><tspan x="0" y="0">Cirleia Francisca</tspan></text>
    <path class="cls-2" d="M167.47,188.92c-11.03-3.12-20.95-4.65-30.45,3.1-5.18,4.23-11.45,7.28-17.56,10.17-10.77,5.09-20.03,2.25-26.65-7.57-6.8-10.07-11.01-11.22-21.94-5.46-10.73,5.65-17.52,14.36-19.57,26.5-.9,5.37-6.01,11.49-13.83,15.55,1.39-4.72,1.87-8.6,3.6-11.81,10.44-19.44,24.83-35.08,45.2-44.38,9.24-4.21,13.68-2.53,19.18,5.99,7.28,11.27,16.67,13.84,28.49,7.44,5.96-3.23,11.67-6.93,17.39-10.58,6.1-3.89,12.41-6.35,19.66-3.71,3.27,1.2,4.89-.03,6.71-2.85,12.66-19.63,27.74-37.13,46.89-50.73,4.1-2.91,8.92-5.16,13.74-6.6,6.23-1.86,8.81,1.19,7.01,7.3-4.66,15.87-14.61,28.29-27.03,38.45-10.19,8.33-21.37,15.52-32.48,22.63-7.88,5.04-14.3,17.9-12.99,28.39,1.09,8.78,8.81,16.51,18.46,19.3,19.21,5.56,35.55-.18,49.15-13.47,10.62-10.38,20.3-21.81,29.56-33.44,2.96-3.71,3.53-9.49,4.71-14.44,6.47-27.23,14.04-54.12,26.13-79.47,7.46-15.63,16.69-30.22,29.73-41.83,4.95-4.41,10.82-8.14,16.87-10.84,4.93-2.21,7.43.33,7.27,5.84-.32,10.29-3.83,19.72-8.01,28.96-14.47,31.99-32.71,61.68-54.71,89.01-5.2,6.46-9.01,13.14-10.67,21.37-2.51,12.45-5.76,24.74-8.55,36.47,4.53,3.28,8.54,6.35,12.72,9.16,7.9,5.33,19.45,4.99,27.87-1.77,7.98-6.41,15.13-13.84,22.78-20.68,6.77-6.06,13.55-12.14,20.65-17.8,5.97-4.76,11.98-5.57,19.61-1.73,16.67,8.38,34.75,8.72,51.45,1.2,23.78-10.7,46.73-23.29,69.86-35.41,8.91-4.67,17.34-10.28,25.98-15.46.42.45.83.89,1.25,1.34-3.82,3.47-7.19,7.72-11.54,10.29-19.81,11.66-39.72,23.19-59.96,34.09-12.64,6.81-25.62,13.21-39.01,18.36-17.68,6.8-35.72,6.45-52.91-2.3-5.93-3.02-10.88-2.35-15.44,1.86-9.6,8.87-18.94,18.02-28.53,26.89-3.51,3.25-7.3,6.26-11.23,9-15.78,11.01-21.7,11.34-38.7,2.23-1.82,5.5-3.6,10.91-5.39,16.32-9.28,28.03-19.8,55.51-36.98,79.86-7.55,10.7-15.69,20.95-27.45,27.54-8.98,5.03-13.4,3.1-15.54-6.98-2.69-12.66-.22-24.66,5-36.22,15.4-34.13,36.3-64.29,65.93-87.54,6.43-5.04,9.93-10.34,11.26-17.98,1.2-6.9,3.02-13.7,4.56-20.55-.39-.2-.78-.41-1.18-.61-1.83,2-3.69,3.95-5.47,5.99-12.63,14.53-25.85,28.38-42.19,38.91-14.32,9.23-29.43,11.49-45.46,5.52-9.97-3.71-14.92-11.74-14.61-22.39.26-9.21,1.97-18.06,5.91-26.43.55-1.17.9-2.43,1.47-4.01ZM259.34,233.95c-7.97.58-12.65,4.7-16.87,8.94-19.99,20.04-35.36,43.18-45.16,69.81-3.85,10.46-4.75,21.35-1.04,32.06,2.56,7.39,8.93,8.47,14.26,2.71,2.46-2.66,4.61-5.64,6.58-8.69,14.2-21.98,23.75-46.06,31.76-70.81,3.55-10.96,6.79-22.02,10.47-34.01ZM287.06,159.21c1.11-.18,1.55-.12,1.72-.3,1.11-1.22,2.23-2.43,3.21-3.75,15.58-21.06,28.83-43.51,40.08-67.16,4.77-10.04,8.75-20.32,9.91-31.48.67-6.45-3.4-9.49-9.19-6.63-2.12,1.05-4.18,2.81-5.52,4.76-4.02,5.84-8.04,11.73-11.39,17.97-12.14,22.58-18.8,47.17-25.63,71.67-1.34,4.8-2.1,9.76-3.19,14.92Z"/>
    <path class="cls-2" d="M92.06,141.26c-.06-.35-.18-.7-.18-1.05,0-42.85.02-85.7.03-128.56,0-.32.06-.66-.03-.96-1.04-3.36,1.1-5.72,4.03-7.91C98.45.89,101.15,0,104.95,0c114.63.1,229.25.08,343.88.08,4.63,0,4.07-.22,4.07,3.1.01,39.37-.08,78.73.14,118.1.02,4.11-1.96,6.83-5.75,9.16-.96.59-2.23.9-3.35,1.34-.16-.87-.46-1.74-.46-2.61-.03-39.8-.03-79.59-.03-119.39,0-2.63-.03-2.64-3.31-2.64-111.83,0-223.67,0-335.5,0q-3.56,0-3.56,2.78c0,40.81-.02,81.63.06,122.44,0,2.18-.85,3.84-2.83,5.27-1.85,1.33-3.72,2.65-5.58,3.97-.23-.11-.45-.23-.68-.34Z"/>
    <path class="cls-2" d="M91.86,393.89v-3.13c0-35.46,0-70.92,0-106.38,0-2.58.13-5.16-.05-7.72-.13-1.87.52-3.28,1.76-4.49,2.21-2.15,4.48-4.23,6.73-6.34.24.12.48.24.73.36,0,.86,0,1.72,0,2.58,0,37.21,0,74.41,0,111.62q0,4.32,4.39,4.32c111.06,0,222.12,0,333.18,0,4.87,0,4.82,0,4.82-4.73-.02-39.93.05-79.86-.08-119.79-.02-6.45,4.14-9.56,8.58-12.72.13-.1.4-.01.81-.01.04.59.12,1.19.12,1.78,0,44.54.02,89.07-.05,133.61,0,1.39-.65,3-1.51,4.12-1.6,2.07-3.45,4.01-5.47,5.68-.97.81-2.51,1.12-3.84,1.27-1.79.2-3.62,0-5.44,0-114.27,0-228.54,0-342.81,0-.48,0-.96,0-1.86,0Z"/>
  </g>
</svg>