<svg width="274" height="274" viewBox="0 0 274 274" fill="none" xmlns="http://www.w3.org/2000/svg">
<circle cx="137" cy="137" r="131" fill="white" stroke="#274156" stroke-width="12"/>
<path d="M186 136.169C186 164.698 166.541 185 137.803 185C110.251 185 88 162.661 88 135C88 107.339 110.251 85 137.803 85C151.218 85 162.504 89.9395 171.2 98.0847L157.644 111.169C139.912 93.9919 106.937 106.895 106.937 135C106.937 152.44 120.814 166.573 137.803 166.573C157.524 166.573 164.914 152.379 166.079 145.02H137.803V127.823H185.217C185.679 130.383 186 132.843 186 136.169Z" fill="#274156"/>
</svg>
