<svg width="269" height="329" viewBox="0 0 269 329" fill="none" xmlns="http://www.w3.org/2000/svg">
<rect x="70.603" y="31.201" width="28" height="199" fill="#EF2D56"/>
<path d="M64.8726 31.6005C60.4181 31.6005 58.1872 26.2148 61.337 23.065L80.8665 3.53553C82.8191 1.58291 85.985 1.58291 87.9376 3.53553L107.467 23.065C110.617 26.2148 108.386 31.6005 103.931 31.6005H84.402H64.8726Z" fill="#EF2D56"/>
<path d="M14.4501 251.373C14.4501 253.154 12.2958 254.047 11.0359 252.787L5.41421 247.165C4.63316 246.384 4.63316 245.118 5.41421 244.337L11.0359 238.715C12.2958 237.455 14.4501 238.347 14.4501 240.129L14.4501 245.751L14.4501 251.373Z" fill="#EF2D56"/>
<circle cx="169.603" cy="229.201" r="85" stroke="#EF2D56" stroke-width="28"/>
<rect x="180.603" y="58.201" width="28" height="88" rx="14" transform="rotate(-90 180.603 58.201)" fill="#274156"/>
<rect x="210.603" y="0.200989" width="28" height="88" rx="14" fill="#274156"/>
<path d="M26.5312 241.795C25.3229 239.461 24.7187 237.076 24.7187 234.638C24.7187 232.201 25.1042 230.107 25.875 228.357C26.625 226.586 27.7083 225.034 29.125 223.701C32.2708 220.805 36.25 219.357 41.0625 219.357C46.3333 219.357 50.5833 220.93 53.8125 224.076C56.9167 227.097 58.4687 230.857 58.4687 235.357C58.4687 239.316 57.4375 242.576 55.375 245.138C53.0417 248.013 49.8229 249.451 45.7187 249.451L11.5 249.451L11.5 241.795L26.5312 241.795ZM45.625 241.795C49.2917 241.795 51.125 239.513 51.125 234.951C51.125 232.722 50.1458 230.847 48.1875 229.326C46.1875 227.784 43.6979 227.013 40.7187 227.013C37.7187 227.013 35.4583 227.826 33.9375 229.451C32.5833 230.909 31.9062 232.868 31.9062 235.326C31.9062 236.805 32.4062 238.441 33.4062 240.232C33.7187 240.795 34.0625 241.316 34.4375 241.795L45.625 241.795ZM41.9375 214.045C39.5 214.045 37.2396 213.628 35.1562 212.795C33.0729 211.961 31.25 210.784 29.6875 209.263C26.375 206.013 24.7187 201.763 24.7187 196.513C24.7187 192.076 26.1875 188.513 29.125 185.826C31.9583 183.18 35.5208 181.857 39.8125 181.857C41.4583 181.857 42.5833 181.982 43.1875 182.232C43.7708 184.316 44.0625 188.555 44.0625 194.951L44.0625 205.951C46.2917 205.409 48.0312 204.149 49.2812 202.17C50.5104 200.191 51.125 197.618 51.125 194.451C51.125 191.138 50.5312 188.295 49.3437 185.92C49.0312 185.295 48.7396 184.826 48.4687 184.513C49.3437 184.555 50.2396 184.607 51.1562 184.67L56.0312 185.013C57.1146 186.597 57.8646 189.159 58.2812 192.701C58.4062 193.743 58.4687 194.743 58.4687 195.701C58.4687 200.993 56.9271 205.368 53.8437 208.826C50.7396 212.305 46.7708 214.045 41.9375 214.045ZM38 190.17C33.5208 191.024 31.2812 193.461 31.2812 197.482C31.2812 200.649 32.6458 203.055 35.375 204.701C36.2083 205.201 37.125 205.586 38.125 205.857C38.1458 205.357 38.1667 204.743 38.1875 204.013L38.1875 201.701C38.2083 200.93 38.2187 200.191 38.2187 199.482L38.2187 197.701C38.2187 196.638 38.2083 195.597 38.1875 194.576L38.0937 192.013C38.0729 191.326 38.0417 190.711 38 190.17Z" fill="#EF2D56"/>
<path d="M16.2187 153.607C15.8437 150.711 15.6562 147.743 15.6562 144.701C15.6562 139.034 16.9896 134.732 19.6562 131.795C22.3021 128.836 26.2708 127.357 31.5625 127.357C36.2917 127.357 40.0312 128.972 42.7812 132.201C45.3646 135.222 46.6562 139.107 46.6562 143.857C46.6562 144.399 46.625 144.993 46.5625 145.638L58 145.638L58 153.607L16.2187 153.607ZM23.1875 143.763C23.1875 144.388 23.2083 145.013 23.25 145.638L39.6875 145.638C39.7708 144.972 39.8125 144.159 39.8125 143.201C39.8125 142.243 39.6146 141.243 39.2187 140.201C38.8021 139.159 38.2292 138.284 37.5 137.576C35.9792 136.097 33.9792 135.357 31.5 135.357C25.9583 135.357 23.1875 138.159 23.1875 143.763ZM54.5 114.482C56.2917 114.482 57.4583 114.441 58 114.357L58 122.295L11.4375 122.295L11.4375 114.482L54.5 114.482ZM55.1562 86.1072C57.3646 88.7739 58.4687 91.6802 58.4687 94.826C58.4687 98.201 57.3333 100.847 55.0625 102.763C52.8542 104.597 49.8229 105.513 45.9687 105.513L33.5625 105.513C29.3958 105.513 27.0104 105.607 26.4062 105.795C25.7812 105.961 25.3854 106.086 25.2187 106.17C25.3021 105.211 25.3437 104.211 25.3437 103.17L25.3437 100.576C25.3437 99.8885 25.3125 98.9822 25.25 97.8572L43.3437 97.8572C47.6354 97.8572 50.125 96.6906 50.8125 94.3572C51.0208 93.6489 51.125 92.8781 51.125 92.0447C51.125 89.5864 50.2292 87.6072 48.4375 86.1072L25.3437 86.1072L25.3437 78.3572L54 78.3572C55.8333 78.3572 57.1667 78.2739 58 78.1072L58 86.1072L55.1562 86.1072ZM58.4687 57.3572C58.4687 63.2322 57.3958 67.6593 55.25 70.6385C54.625 70.5968 53.9167 70.5343 53.125 70.451L50.875 70.1697C49.3958 70.0031 48.4792 69.8989 48.125 69.8572C47.75 69.8156 47.5521 69.7843 47.5312 69.7635C47.4896 69.7427 47.6562 69.576 48.0312 69.2635C48.3854 68.951 48.8229 68.3572 49.3437 67.4822C49.8646 66.6072 50.3229 65.5968 50.7187 64.451C51.5729 61.9718 52 59.3885 52 56.701C52 53.0968 50.8021 51.2947 48.4062 51.2947C47.6354 51.2947 47.0625 51.6385 46.6875 52.326C46.0625 53.5552 45.5937 55.3677 45.2812 57.7635C44.9479 60.1385 44.4687 62.0864 43.8437 63.6072C43.2187 65.1281 42.4687 66.3677 41.5937 67.326C39.9479 69.0968 37.7917 69.9822 35.125 69.9822C31.875 69.9822 29.3229 68.7322 27.4687 66.2322C25.6354 63.7531 24.7187 60.326 24.7187 55.951C24.7187 51.6177 25.9479 47.9197 28.4062 44.8572C28.9479 45.0031 29.4687 45.1593 29.9687 45.326C31.3437 45.8052 32.3333 46.1593 32.9375 46.3885L34.7812 47.1072C34.9479 47.1489 35.0312 47.1802 35.0312 47.201C35.0312 47.2427 34.8125 47.4093 34.375 47.701C32.8542 49.0135 31.8542 51.0552 31.375 53.826C31.2083 54.6802 31.125 55.5552 31.125 56.451C31.125 60.2427 32.2708 62.1385 34.5625 62.1385C35.3542 62.1385 35.9583 61.7427 36.375 60.951C37.1667 59.4718 37.75 57.451 38.125 54.8885C38.5 52.3052 39.0104 50.3468 39.6562 49.0135C40.2812 47.6802 41.0417 46.6072 41.9375 45.7947C43.5625 44.2947 45.7187 43.5447 48.4062 43.5447C51.3437 43.5447 53.7292 44.7218 55.5625 47.076C57.5 49.5343 58.4687 52.9614 58.4687 57.3572Z" fill="#274156"/>
</svg>
