<svg width="226" height="412" viewBox="0 0 226 412" fill="none" xmlns="http://www.w3.org/2000/svg">
<rect x="18.603" y="32" width="28" height="199" fill="#EF2D56"/>
<path d="M12.8726 32.3995C8.41806 32.3995 6.18722 27.0138 9.33705 23.864L28.8665 4.33451C30.8191 2.38189 33.985 2.38189 35.9376 4.33451L55.467 23.864C58.6169 27.0138 56.386 32.3995 51.9315 32.3995H32.402H12.8726Z" fill="#EF2D56"/>
<path d="M14.4315 346.45C12.6496 346.45 11.7573 344.296 13.0172 343.036L18.6389 337.414C19.4199 336.633 20.6863 336.633 21.4673 337.414L27.089 343.036C28.3489 344.296 27.4566 346.45 25.6747 346.45H20.0531H14.4315Z" fill="#EF2D56"/>
<circle cx="117.603" cy="230" r="85" stroke="#EF2D56" stroke-width="28"/>
<rect x="128.603" y="59" width="28" height="88" rx="14" transform="rotate(-90 128.603 59)" fill="#274156"/>
<rect x="158.603" y="1" width="28" height="88" rx="14" fill="#274156"/>
<path d="M24.0093 358.531C26.3426 357.323 28.728 356.719 31.1655 356.719C33.603 356.719 35.6968 357.104 37.4468 357.875C39.2176 358.625 40.7697 359.708 42.103 361.125C44.9989 364.271 46.4468 368.25 46.4468 373.062C46.4468 378.333 44.8739 382.583 41.728 385.812C38.7072 388.917 34.9468 390.469 30.4468 390.469C26.4884 390.469 23.228 389.438 20.6655 387.375C17.7905 385.042 16.353 381.823 16.353 377.719V343.5H24.0093V358.531ZM24.0093 377.625C24.0093 381.292 26.2905 383.125 30.853 383.125C33.0822 383.125 34.9572 382.146 36.478 380.188C38.0197 378.188 38.7905 375.698 38.7905 372.719C38.7905 369.719 37.978 367.458 36.353 365.938C34.8947 364.583 32.9364 363.906 30.478 363.906C28.9989 363.906 27.3634 364.406 25.5718 365.406C25.0093 365.719 24.4884 366.062 24.0093 366.438V377.625ZM51.7593 373.938C51.7593 371.5 52.1759 369.24 53.0093 367.156C53.8426 365.073 55.0197 363.25 56.5405 361.688C59.7905 358.375 64.0405 356.719 69.2905 356.719C73.728 356.719 77.2905 358.188 79.978 361.125C82.6239 363.958 83.9468 367.521 83.9468 371.812C83.9468 373.458 83.8218 374.583 83.5718 375.188C81.4884 375.771 77.2489 376.062 70.853 376.062H59.853C60.3947 378.292 61.6551 380.031 63.6343 381.281C65.6134 382.51 68.1864 383.125 71.353 383.125C74.6655 383.125 77.5093 382.531 79.8843 381.344C80.5093 381.031 80.978 380.74 81.2905 380.469C81.2489 381.344 81.1968 382.24 81.1343 383.156L80.7905 388.031C79.2072 389.115 76.6447 389.865 73.103 390.281C72.0614 390.406 71.0614 390.469 70.103 390.469C64.8114 390.469 60.4364 388.927 56.978 385.844C53.4989 382.74 51.7593 378.771 51.7593 373.938ZM75.6343 370C74.7801 365.521 72.3426 363.281 68.3218 363.281C65.1551 363.281 62.7489 364.646 61.103 367.375C60.603 368.208 60.2176 369.125 59.9468 370.125C60.4468 370.146 61.0614 370.167 61.7905 370.188H64.103C64.8739 370.208 65.6134 370.219 66.3218 370.219H68.103C69.1655 370.219 70.2072 370.208 71.228 370.188L73.7905 370.094C74.478 370.073 75.0926 370.042 75.6343 370Z" fill="#EF2D56"/>
<path d="M112.197 348.219C115.093 347.844 118.061 347.656 121.103 347.656C126.77 347.656 131.072 348.99 134.009 351.656C136.968 354.302 138.447 358.271 138.447 363.562C138.447 368.292 136.832 372.031 133.603 374.781C130.582 377.365 126.697 378.656 121.947 378.656C121.405 378.656 120.811 378.625 120.166 378.562V390H112.197V348.219ZM122.041 355.188C121.416 355.188 120.791 355.208 120.166 355.25V371.688C120.832 371.771 121.645 371.812 122.603 371.812C123.561 371.812 124.561 371.615 125.603 371.219C126.645 370.802 127.52 370.229 128.228 369.5C129.707 367.979 130.447 365.979 130.447 363.5C130.447 357.958 127.645 355.188 122.041 355.188ZM151.322 386.5C151.322 388.292 151.363 389.458 151.447 390H143.509V343.438H151.322V386.5ZM179.697 387.156C177.03 389.365 174.124 390.469 170.978 390.469C167.603 390.469 164.957 389.333 163.041 387.062C161.207 384.854 160.291 381.823 160.291 377.969V365.562C160.291 361.396 160.197 359.01 160.009 358.406C159.843 357.781 159.718 357.385 159.634 357.219C160.593 357.302 161.593 357.344 162.634 357.344H165.228C165.916 357.344 166.822 357.312 167.947 357.25V375.344C167.947 379.635 169.113 382.125 171.447 382.812C172.155 383.021 172.926 383.125 173.759 383.125C176.218 383.125 178.197 382.229 179.697 380.438V357.344H187.447V386C187.447 387.833 187.53 389.167 187.697 390H179.697V387.156ZM208.447 390.469C202.572 390.469 198.145 389.396 195.166 387.25C195.207 386.625 195.27 385.917 195.353 385.125L195.634 382.875C195.801 381.396 195.905 380.479 195.947 380.125C195.988 379.75 196.02 379.552 196.041 379.531C196.061 379.49 196.228 379.656 196.541 380.031C196.853 380.385 197.447 380.823 198.322 381.344C199.197 381.865 200.207 382.323 201.353 382.719C203.832 383.573 206.416 384 209.103 384C212.707 384 214.509 382.802 214.509 380.406C214.509 379.635 214.166 379.062 213.478 378.688C212.249 378.062 210.436 377.594 208.041 377.281C205.666 376.948 203.718 376.469 202.197 375.844C200.676 375.219 199.436 374.469 198.478 373.594C196.707 371.948 195.822 369.792 195.822 367.125C195.822 363.875 197.072 361.323 199.572 359.469C202.051 357.635 205.478 356.719 209.853 356.719C214.186 356.719 217.884 357.948 220.947 360.406C220.801 360.948 220.645 361.469 220.478 361.969C219.999 363.344 219.645 364.333 219.416 364.938L218.697 366.781C218.655 366.948 218.624 367.031 218.603 367.031C218.561 367.031 218.395 366.812 218.103 366.375C216.791 364.854 214.749 363.854 211.978 363.375C211.124 363.208 210.249 363.125 209.353 363.125C205.561 363.125 203.666 364.271 203.666 366.562C203.666 367.354 204.061 367.958 204.853 368.375C206.332 369.167 208.353 369.75 210.916 370.125C213.499 370.5 215.457 371.01 216.791 371.656C218.124 372.281 219.197 373.042 220.009 373.938C221.509 375.562 222.259 377.719 222.259 380.406C222.259 383.344 221.082 385.729 218.728 387.562C216.27 389.5 212.843 390.469 208.447 390.469Z" fill="#274156"/>
</svg>
