<svg width="274" height="274" viewBox="0 0 274 274" fill="none" xmlns="http://www.w3.org/2000/svg">
<circle cx="137" cy="137" r="131" stroke="white" stroke-width="12"/>
<path d="M215 151.991C215 174.103 205.458 187.956 188.287 187.956C173.126 187.956 165.085 179.577 150.287 154.873L142.683 142.134C140.673 139.107 139.171 136.273 137.548 133.658C132.68 141.844 126.141 153.759 126.141 153.759C109.915 181.998 100.809 187.956 88.1422 187.956C70.5158 187.956 60 174.079 60 152.621C60 117.988 79.3217 85.2688 104.538 85.2688C116.696 85.2688 127.255 91.2459 139.607 106.945C148.592 94.8109 158.522 85.2688 171.237 85.2688C195.238 85.2688 215 115.712 215 151.991ZM129.605 121.548C119.215 106.509 112.434 102.052 104.32 102.052C89.3289 102.052 76.7642 127.748 76.7642 152.912C76.7642 164.658 81.2398 171.245 88.7719 171.245C96.0859 171.245 100.639 166.644 113.766 146.106C113.766 146.106 119.748 136.637 129.605 121.548ZM188.65 171.245C196.448 171.245 200.009 164.585 200.009 153.105C200.009 123.026 186.858 98.5116 170.171 98.5116C162.13 98.5116 155.373 104.789 147.188 117.407C149.464 120.749 151.813 124.43 154.284 128.402L163.366 143.515C177.582 166.305 181.166 171.245 188.65 171.245Z" fill="white"/>
</svg>
