<svg width="274" height="274" viewBox="0 0 274 274" fill="none" xmlns="http://www.w3.org/2000/svg">
<circle cx="137" cy="137" r="131" fill="white" stroke="#274156" stroke-width="12"/>
<path d="M71.1318 159.312L77.9189 137.584H80.8975L80.3115 141.905L73.4023 164H70.4971L71.1318 159.312ZM66.5664 137.584L72.3525 159.557L72.7676 164H69.7158L62.0498 137.584H66.5664ZM87.3916 159.386L92.9092 137.584H97.4014L89.7354 164H86.708L87.3916 159.386ZM81.5566 137.584L88.1973 158.946L88.9541 164H86.0732L78.9688 141.856L78.3828 137.584H81.5566ZM118.861 154.625L132.436 111.168H138.393L137.221 119.811L123.402 164H117.592L118.861 154.625ZM109.73 111.168L121.303 155.113L122.133 164H116.029L100.697 111.168H109.73ZM151.381 154.771L162.416 111.168H171.4L156.068 164H150.014L151.381 154.771ZM139.711 111.168L152.992 153.893L154.506 164H148.744L134.535 119.713L133.363 111.168H139.711ZM183.925 159.312L190.712 137.584H193.69L193.104 141.905L186.195 164H183.29L183.925 159.312ZM179.359 137.584L185.146 159.557L185.561 164H182.509L174.843 137.584H179.359ZM200.185 159.386L205.702 137.584H210.194L202.528 164H199.501L200.185 159.386ZM194.35 137.584L200.99 158.946L201.747 164H198.866L191.762 141.856L191.176 137.584H194.35Z" fill="#274156"/>
</svg>
